/* XPM */
static char *Free_Converter_com_onepenny_64_32273009[] = {
/* columns rows colors chars-per-pixel */
"55 64 256 2 ",
"   c #010101",
".  c #1C161D",
"X  c #1D191E",
"o  c #1B1818",
"O  c #221A1E",
"+  c #2A1E1E",
"@  c #1E201D",
"#  c #2F231E",
"$  c #1C1522",
"%  c #1E1A22",
"&  c #1E1A28",
"*  c #180C20",
"=  c #221623",
"-  c #241C24",
";  c #291E26",
":  c #251D29",
">  c #291E29",
",  c #252125",
"<  c #2A2325",
"1  c #2C2926",
"2  c #262229",
"3  c #2B232B",
"4  c #2D292D",
"5  c #322525",
"6  c #322C25",
"7  c #31262E",
"8  c #332B2C",
"9  c #392E2D",
"0  c #38272D",
"q  c #36322E",
"w  c #3C342C",
"e  c #373529",
"r  c #2D2531",
"t  c #2E2A31",
"y  c #262630",
"u  c #312632",
"i  c #332B33",
"p  c #392D35",
"a  c #352D39",
"s  c #3B2E38",
"d  c #3A2632",
"f  c #343235",
"g  c #3B3334",
"h  c #3D3B32",
"j  c #363339",
"k  c #3B343A",
"l  c #3D3B3B",
"z  c #373832",
"x  c #433C2E",
"c  c #45372E",
"v  c #413635",
"b  c #443C35",
"n  c #4B3E32",
"m  c #41353B",
"M  c #443C3B",
"N  c #493B3B",
"B  c #412F2B",
"V  c #3F412C",
"C  c #3B4135",
"Z  c #454235",
"A  c #4A4335",
"S  c #4C4A36",
"D  c #44443C",
"F  c #4B443C",
"G  c #47493B",
"H  c #4A4B3C",
"J  c #534B3C",
"K  c #54493B",
"L  c #4E503D",
"P  c #54523D",
"I  c #5A533E",
"U  c #5A5939",
"Y  c #4B452F",
"T  c #3F3A40",
"R  c #3F3742",
"E  c #443C41",
"W  c #493E44",
"Q  c #493D49",
"!  c #454343",
"~  c #4B4443",
"^  c #474842",
"/  c #4C4B42",
"(  c #4A454A",
")  c #4E4B48",
"_  c #524543",
"`  c #534B43",
"'  c #584E44",
"]  c #51454A",
"[  c #544C4A",
"{  c #5C4E4B",
"}  c #4E5142",
"|  c #4E5148",
" . c #535244",
".. c #5A5444",
"X. c #575843",
"o. c #5D5B45",
"O. c #54544A",
"+. c #5C544B",
"@. c #57584B",
"#. c #5B5A4D",
"$. c #544952",
"%. c #565452",
"&. c #5A5451",
"*. c #5C5A53",
"=. c #555951",
"-. c #635546",
";. c #625C45",
":. c #61554A",
">. c #635C4B",
",. c #685F4D",
"<. c #685A47",
"1. c #645C52",
"2. c #655C59",
"3. c #6A5D57",
"4. c #5D624C",
"5. c #63624B",
"6. c #6A634C",
"7. c #6E6A4C",
"8. c #646045",
"9. c #736E4E",
"0. c #736B48",
"q. c #656353",
"w. c #6B6453",
"e. c #6D6A54",
"r. c #64625A",
"t. c #6A635A",
"y. c #6E6A5A",
"u. c #666954",
"i. c #736651",
"p. c #736C54",
"a. c #736D5A",
"s. c #786C5B",
"d. c #767355",
"f. c #7B7555",
"g. c #75725C",
"h. c #7A745B",
"j. c #7E7A5C",
"k. c #767A59",
"l. c #747552",
"z. c #736C63",
"x. c #796F64",
"c. c #706561",
"v. c #757264",
"b. c #7B7363",
"n. c #7C7B63",
"m. c #76736C",
"M. c #7C746B",
"N. c #7F7C6A",
"B. c #777961",
"V. c #7D7872",
"C. c #6C6969",
"Z. c #817C5C",
"A. c #837B58",
"S. c #837D63",
"D. c #887C63",
"F. c #847D6B",
"G. c #857F73",
"H. c #7D8063",
"J. c #84815E",
"K. c #89855E",
"L. c #8A875C",
"P. c #848265",
"I. c #8B8564",
"U. c #8D8A64",
"Y. c #84826A",
"T. c #8B836B",
"R. c #86896A",
"E. c #8D8A6B",
"W. c #858B67",
"Q. c #938D65",
"!. c #928C6C",
"~. c #91876C",
"^. c #8C906C",
"/. c #95916C",
"(. c #9E996D",
"). c #98936A",
"_. c #848373",
"`. c #8B8473",
"'. c #8C8B73",
"]. c #8D837A",
"[. c #8B8B7A",
"{. c #938D73",
"}. c #948D7D",
"|. c #969272",
" X c #9A9474",
".X c #9D9975",
"XX c #96937A",
"oX c #9A947B",
"OX c #9D9A7A",
"+X c #979978",
"@X c #8F9275",
"#X c #A29D76",
"$X c #A39D7B",
"%X c #A4A275",
"&X c #A4A27C",
"*X c #AAA47C",
"=X c #ABA97C",
"-X c #ACAA74",
";X c #B1AD7F",
":X c #B7B57C",
">X c #9A9382",
",X c #9D9B83",
"<X c #989286",
"1X c #8D9182",
"2X c #A29C82",
"3X c #A49D8A",
"4X c #A99C83",
"5X c #9DA190",
"6X c #A4A283",
"7X c #AAA584",
"8X c #A7A881",
"9X c #ADAB83",
"0X c #A5A48A",
"qX c #AAA48B",
"wX c #ACAA8C",
"eX c #B2AD83",
"rX c #B3AD8B",
"tX c #B1A684",
"yX c #ACB38D",
"uX c #B4B184",
"iX c #B5B28B",
"pX c #BBB68B",
"aX c #BBB98C",
"sX c #B8B787",
"dX c #ABA292",
"fX c #ADAB92",
"gX c #ABA398",
"hX c #B2AD92",
"jX c #B4B294",
"kX c #BAB493",
"lX c #BCBB94",
"zX c #BAB69B",
"xX c #BCB6A0",
"cX c #C0BD8C",
"vX c #C2BD94",
"bX c #C2BE9A",
"nX c #C2B799",
"mX c #C1BDA4",
"MX c #BEC494",
"NX c #C5C193",
"BX c #C4C29A",
"VX c #C9C49C",
"CX c #CCC89C",
"ZX c #CBC793",
"AX c #D1CD9F",
"SX c #C8D09F",
"DX c #CAC4A3",
"FX c #CDCBA2",
"GX c #CDC9AA",
"HX c #D1CDA1",
"JX c #CCD2A3",
"KX c #D4D1A4",
"LX c #D4D3AB",
"PX c #DBDAA7",
"IX c #DAD5B2",
"UX c #E3DEB6",
/* pixels */
"                                                                                                              ",
"  , 4.L L H H L } @.O.` O.}  . .| H H L S G G H A S L H H } H Z L X.} | O.}  .O.O.} #.*.4.*.*.>.*.X.#.%.@.X   ",
"  q.FX&XaXlXZXDX&XgX<XF.oX3X,X3XG.T.{.>X<X1XoX[.dX~.hX2XwXhX`.2X3X`.2XdX0X].'.0X,X3X`.`.<X>X>XkXDXvXjX<X,X`   ",
"  =.lXn.8XkXKX7XE.* $ : +.+Xw.6Xq Y.g.Y.y.O.&Xq.s.5 S..X{.1.5 !.1.- /.F.r.%.X.zX2.].W : < g 1._.zXCXnXy.G.^   ",
"  @.sXOXn.V.N.9XlX$ ; = ~ .Xw.,XD LXD u.fX/ XX+Xb.0 q &Xv.> F oX<X1 LXf ^ *. .0Xm.5 i : g ! +X0Xz.z.`.BX}.[   ",
"  X.eX.X[.gX4.aXhX$ - % O.fX2.s , mXv._.`.F 2.n.GX3 q jXG.0 [ %.zXC 5X#.N._.%.fXC.t.t.: a l 8X3XF.].O.KX4X~   ",
"  @.bXwXy.c.6.yXyX$ - ; f [ a = % l ^ ( u p R ) [ = < ~ M r 9 3 ! t j k k s q ~ j R p : > 3 XXzXw.1...VX&X/   ",
"  #.7Xe.,X=X&XG 1X& 3 ; 2 3 y r r : y 2 - - p 7 3 = 3 7 - , 3 2 & - $ : $ - 3 3 r > : - 7 7 *.N.7XiXjXu.4X^   ",
"  #.OX3.<X]._.C.f : % y 2 t t - % = = 3 a ; r - ; % , 2 3 3 - = % - r : : $ , = % = t i u u l m.[.G.G.2.1. .  ",
"  O.@X0 ] ( = i q % % $ $ t , 4 ; : ; - - h p ; ; % 2 . = 3 u - - 3 - % , 2 f j = 2 = 3 3 a t 2 r > p Q O.}   ",
"  #.oXN ~ W 2 f k - , 2 , - - = . ~ D < r > r 3 a 7 3 k , < ; - : % % , 2 t ; - $ % 2 r t 3 p r : y p ] s./   ",
"  =.,X9 5 3 l = k 3 . , % % - 9 2 z.z.6 v 5 b I 9.9.j.o.F 9 7 < - : , & - % ; = y , , r ; , a j : t 2.E ;.^   ",
"  =.,X6 6 - ! y y 2 % o % = , W 2 7.m.K f.,.#XiXlXFXBX2XS.p.6...l 3 3 - = : < $ k 3 = ; ; - 1 y y 3 ! D O.^   ",
"  *.@XM  .Z ; 2 f & X X % - - 3 < +X .`.A.I..XXXh.aXbX6X XQ.K.j.' ~ r > ; , , 3 $ : ; ; = , f , t r M +.w.G   ",
"  O.!.F #.J 2 f t & . & ; t : < H &XS. XT.D.$XS.Y uX,Xh.J. X!.h.' M &.M l d.U.p.N - : > < 4 f 2 p r k b S./   ",
"  O. X..e.G % l t @ y , X ; : O d.U.$XkXkX$XI.#.f.wX:.h.I.!.x.p.K v w J 6.eX4X`.n.M - < 3 , t 2 : 3 q M P.G   ",
"  O.oX..F T f t ( & @ 2 % , 3 ; ^.;XBXnXkXsXNX#X`.|.D.A.A.i.>.7.6.N n /.uX+X+.B ' +.= > : t k % = q ! b h.^   ",
"  @.2Xg i a z , D $ y 2 , - 2 1 ^./.*XLXbXlXrXtX{.3X$XG.dXs.a.`...:.B w.4XI `.-.J y.F : = < r , 3 + q.%.7.G   ",
"  O.+XM j 1 T t ) - = ; r , = U aXrX).eX&XeXuX&X~.Z.i.:.:.n K ' b :.F B z.b.D.T.....G.= , ; a 7 3 q r.~ 9.~   ",
"  *.OX .) 1 , f R ; % ; ; - # Q.aXpXeXuXU..X XI.D.I K ' :.3.s.i.a.w.+.N 9 ,.x...-.n { 7 - 3 7 3 : 9 ~ 1.{.G   ",
"   .P.M 1.M % l , - : > = i n (.cXsXNXiX*XiXP.N.x.1.{ K x A ..;.F.6.1.~ v -.K 1.n 1.N = = < 7 3 j g N v !.F   ",
"  H 7.c ` M = D 9 = 3 > ; v ..%XNXeXpX=X;X9XfXzX>.n.-.K J 7.^.^.f.j.h.N g ' >.S.b w.#.5 , 3 u ; 4 j v v E.D   ",
"  ` f.A M k ; 1 ! = 3 ; < 7 e.L.=XuX9X8XaXvXOXY.f.hX2X..6.E..Xj.9.:.9.+.` K 9.T.,.S.n.8 : r p 4 r z %.1.j.D   ",
"  O.A.w z j 4 y D = - , 7 # 8.f.oXtX#X.X*X$X X+XwXwXqX^.j.7.=X#XI.;.5.` [ i.|.F.<.h.].- > 2 v p f z 2.t.w.G   ",
"  #.XXn w 3 l , l 7 > ; 5 # S.0.p.(.A.(.%X8XjXwX+X6XY.B.S A.*X~.6.1.b J A #.oXx.F ' k : > 3 E W = / F.M.p.D   ",
"  #.`.A n 9 - 4 a - ; ; # U L.0.l.-X-X9XaX9XzXjXi.F.h.B.I A.i.,.n.g J a.b ' p.+.~ ` i ; - u E u r v +.:.F.D   ",
"   .n.F t.b O b a : - + Y ).(.9X.X&XJXCXlXlXbXfXT.XX_.+.[ K n ,.p.e.A b J A ' b k u : ; 3 y Q m i Z 1.>.XXD   ",
"  L N.b G < o M 4 y : < h.*X).9XDXMXSXBXmXjXfX8X6.6.' / Y f.s.<.b.J ..+.J ;.n.g.[ w 7 2 5 k p 9 k M +.+.F.D   ",
"  @.~.F [ a < 4 l % 3 Z 7X.XE.8X9XBXKXVXkX0XfX Xf.J.$X`.5.h.P.p.f.:.F b 7.;XkXn.~ k < a 3 E m u p ~ ' +.'.G   ",
"  #.oX9 9 m b O ! , ; A j.h.U.*X9XSXCXBX=XOX&X&X=X/.9XoX*XZ.J p.E.;.` A 6.j.w..._ 3 - t > 7 F v s [ 1.q.n.D   ",
"  O.T.h q 9 E & ) ; , 2 b 9.!.%X*XlXvXpX6X!.^.E.|.E.iXtX!.p.;.h.T.d.e.8 g g.I.>.A 3 3 k r 3 M m u F 3.y.N.D   ",
"  #.D.A J 9 f 3 M = , : 8 p.qX9X=X=X#X X$X.X$X7X#X!..X).h.0.9.a.1.w.h = 7 b.'.u.F k p 7 7 p E p u ^ #.a.T.D   ",
"   .x.+.y.h O ] q = 3 < ; ] d.#X%X%XtXT.|.!.{..XU.tX.X#X%XQ.p.w...v : & f v ] ~ 9 a 7 d u d ! m p E [ { '.M   ",
"  G >.6.w.7 . %.k $ - 3 ; G p. X#X~. X.XI.Z.n.p.E.rXeX&X#X Xf.p.J 9 = - a p M 5 3 3 3 m 3 7 g 7 7 M { K T.G   ",
"  @.a...;.i % f f 2 3 3 ; < I !.#X#XI.j.!.{.!. XQ.:XuX-X X.Xh.7.F u r - = r 7 5 p M p p k k 0 0 s g F F n.G   ",
"  #.F.J v m O.% D - 2 3 - 5 N.OX4X!.I.h.n.!.A.U.:XsXNXpX$XU.h.N.b 4 X - - 2 d _ m u - < 3 p ] 7 > O.3.z.Z.G   ",
"  O.n.J m l z O D & : 3 u , g.+X|.P.D. XI.Z.U.eX&X*XuX(.|.J.A.9.b ; p - 2 3 ; 0 0 3 2 7 u 2 ! E : / t.t.Y.G   ",
"  O.T./  .z ! : p . ; 3 4 5 q #.j.S.D.S.A.L.=XcXfX|.#XtX/.Q.h.A.I 7 = k > i p 0 ; : - a > a F 4 & G 1.*.T.Z   ",
"  ` h. .` 7 = p 4 % ; - 5 ! 3 $ 7 A F -.f.%XvXuX(.*X|.#X6X|.U.A.p.g 4 3 2 3 r = 3 ; ; 3 : i ^ a 2 w l G E.D   ",
"   .s.w.&.- = O.; ; = 2 = i > > ; ; ; < Z.ZXpX9X-X;X/./.OX.XI.S.h.w f 4 r < 7 r 3 r > > 7 p l 4 u t l H ^.D   ",
"  L Z...` d 3 z j 3 2 - ; = 2 < r 3 7 3 S.HXlXsX#X&X#XI.I.I.S.i.g.I 0 4 : ; 3 w 7 p - i 3 7 i 3 i q ~ D +X^   ",
"  H S.b h a l O h % ; 3 , & 2 t ; - i < i.DXbX=XyX*X!. X|.I.Z.7.;.d.M : = 3 p k 7 4 ; 3 3 3 p t : / *.} T.D   ",
"   .j.~ M w a X l y $ 2 2 % , ; 3 O 5 < 1.lXlXrXtXtXI. XF.S.I.Z.d.9.#.< 3 t 4 3 3 > r > 3 k M i $ ! _ ) j.G   ",
"  #.OXF A l k X z & 2 % , 3 - - 3 7 9 k v OXpX#X$X XtX$X#X#X#X).A.5.w.7 > r u 3 3 u r 7 > s h q y ^ J >.E.G   ",
"  [ p.1.i.q ; R 3 % % % t f 3 = ; 3 p i - 9.lX#X(.(.=X(.pX&X!.A.h.d.a.` < ; 0 0 7 ; - 2 3 r l y f t E +.rXD   ",
"  / b.t.+., % ( - : % , 3 7 < 3 , ; u 3 < 5.=X&XuXpX=XCXvX8X$X$XQ.h.T.:.3 3 s 3 > p i 3 3 t t 4 1 l 0 +.$XD   ",
"  } y.3.r.q t h t , = 3 ; - 7 3 4 7 < 3 x f.(.9XvXAXpXcXNXkX7XT.A.D.<.<.7 3 ; u 7 - > 2 3 i k 3 a E O.' {.D   ",
"  O.s.h ! j ! , f % % > - ; M q < , ; h f.!. X;XHXvXnXuX$X/.x.,.<.,.-.K 3 > > E p ; ; ; > u k r 3 +.1.:.'.D   ",
"  =.`.F q T l $ f & = : > 3 = - 5 4 q 7.).|.tXpXsXVX4XD.i.,.' _ M 9 i u 3 3 u 3 3 ; - 3 > u M a > :._ 2.P.F   ",
"  %.G.F l q l o R @ ; 3 t u < ; 0 < Y U.*XsX&XeX-X X<.:.v M w u - = ; > 3 3 k i 7 7 = 3 > 3 g s > 2.1.~ I.^   ",
"  O.b.>.L u 3 ! j 2 u 7 < r = > 7 6 &XuX=XtXtX$X,.N 0 3 r m q r < = , 3 3 r u 3 3 3 3 r : 3 7 p 0 m Q { {.}   ",
"  [ { A ` 5 = a 3 - = 3 - 3 3 = > A.vX#X*XoXx.N + d = 7 3 3 7 3 ; < - 3 t : > 3 3 : ; 3 3 7 7 p s 7 M [ OX/   ",
"  O.h.1...9 < $.< = > : - & t 3 $ x.a.n.6._ 0 w 3 ; 2 - - = - k r 2 % : - ; 3 q 3 > : > 7 3 s 3 7 5 ` H }.|   ",
"  [ g.h M p v < a % 7 3 , , 3 3 3 q 3 < - - < a s ; r @ 3 3 ; 4 r ; = 3 = ; 3 j > 3 2 3 3 > 7 9 r / g.t.0X^   ",
"  @.F.w g Z q o p ; 3 3 % 2 - - - - 3 , : = < ; > ; = , - > 2 = - X ; 3 3 : 2 : t 4 i 4 u 3 l 4 & / H c.^./   ",
"  ) a.y.>.4.8.G ; 4 3 , 3 q ; - 7 - = ; - 4 r 3 , : 4 y , 4 p ; 3 - 2 r 3 < 3 3 t r 3 k a < S e.u.5.6.#.R.G   ",
"  ) .XIXKXAXsXJXz u - - 4 t , X ; - 2 ; = 7 3 O & 2 y X $ 4 6 = ; : - ; r 3 4 2 , , : u 1 z XXlXlXyXVXIXH./   ",
"  | /.tX'._.e.GXz 6 } ) 6 X.H q F g 1.9 ! < 3 #.D #.t h ` E D u a.q M l 6 o.8 k t r.` 4 1.M @X*.G.g yXGXP./   ",
"  } T.rX..J d.IXf H.y.v.5.e.8XA ` q eXz +.3 O 6X#.B.[. .oXK ` z ,X].Z p v 6XS.O.a m.+X6 z.b 0Xm.G.G PXLXa.H   ",
"  G T.lX#.a.1.DX< bX#.5.F.F B.OX .6 eXO.k $ . 8Xa.F.z.H vX+.9 , D _. Xu r 1.4X|.a , yXz.3 p ,Xu.Y.F ,XJXy.L   ",
"  / F.NXaXBXHXUXz uXP.B.x.~ w /.>.e bX# ' [ o 7Xe.5 4 4.6XA 6._ 7.6 xX7 q r.1.XXk , aX2X< Y.8XBXFXKXPXIXu. .  ",
"  / l..X&XkXlXmX1 V ^.d.e >.F e w P w.;.>.w w H >.x < O.o.q.[ E %.k g 1 L A q l z H r.*.m 1.g.`.V.m.V.C.'.[   ",
"  f u.X.5.4.4.y.u.u.y.u.7.B.F.n.N.n.H.n._.j.P.K.P.S.j.H.N.n.k.l.k.P.B.P.W.[.'.R.R.H.W.j.I.I.Y.Y.Y.W.R.[.R.,   ",
"                                                                                                              "
};
